<?xml version="1.0" standalone="no"?>
<!DOCTYPE svg PUBLIC "-//W3C//DTD SVG 20010904//EN"
 "http://www.w3.org/TR/2001/REC-SVG-20010904/DTD/svg10.dtd">
<svg version="1.0" xmlns="http://www.w3.org/2000/svg"
 width="2292.000000pt" height="2292.000000pt" viewBox="0 0 2292.000000 2292.000000"
 preserveAspectRatio="xMidYMid meet">
<metadata>
Created by potrace 1.14, written by Peter Selinger 2001-2017
</metadata>
<g transform="translate(0.000000,2292.000000) scale(0.100000,-0.100000)"
fill="#000000" stroke="none">
<path d="M9755 21402 c-2 -2 -50 -5 -107 -7 -56 -2 -134 -6 -173 -9 -38 -3
-108 -8 -155 -12 -47 -3 -101 -7 -120 -10 -19 -2 -60 -6 -90 -8 -30 -3 -73 -8
-95 -11 -22 -3 -62 -8 -90 -11 -59 -6 -99 -11 -140 -18 -16 -2 -55 -8 -85 -11
-30 -4 -63 -9 -74 -11 -10 -2 -38 -6 -63 -9 -24 -2 -48 -7 -52 -9 -4 -3 -29
-8 -57 -11 -63 -8 -81 -11 -124 -20 -19 -4 -46 -8 -60 -10 -14 -2 -79 -15
-145 -29 -66 -15 -129 -28 -140 -30 -45 -9 -211 -48 -225 -53 -8 -3 -25 -7
-37 -9 -13 -1 -32 -5 -42 -9 -11 -3 -28 -8 -38 -10 -10 -3 -40 -10 -68 -17
-27 -6 -52 -14 -55 -17 -3 -4 -14 -7 -25 -8 -34 -4 -50 -8 -61 -15 -6 -4 -25
-10 -42 -13 -17 -3 -44 -10 -59 -17 -15 -6 -31 -11 -35 -10 -4 1 -26 -5 -50
-14 -24 -9 -52 -17 -63 -20 -11 -2 -67 -20 -125 -39 -58 -20 -112 -38 -120
-40 -40 -9 -175 -61 -178 -68 -2 -4 -8 -5 -13 -2 -4 3 -29 -3 -53 -15 -25 -11
-52 -20 -60 -20 -9 0 -16 -5 -16 -11 0 -5 -4 -7 -10 -4 -5 3 -10 1 -10 -5 0
-6 -4 -8 -10 -5 -5 3 -20 0 -32 -7 -13 -6 -27 -13 -33 -14 -5 -1 -28 -10 -50
-19 -22 -10 -44 -19 -50 -20 -12 -3 -173 -70 -230 -95 -22 -10 -81 -36 -131
-59 -51 -23 -97 -41 -103 -41 -6 0 -11 -4 -11 -10 0 -5 -3 -9 -7 -8 -5 2 -43
-14 -85 -35 -43 -20 -81 -37 -86 -37 -5 0 -18 -9 -30 -20 -12 -12 -22 -18 -22
-15 0 6 -274 -133 -365 -185 -22 -12 -56 -31 -75 -42 -19 -11 -57 -32 -85 -49
-27 -16 -57 -32 -65 -36 -8 -3 -17 -9 -20 -12 -3 -4 -22 -15 -42 -26 -21 -11
-38 -23 -38 -27 0 -5 -3 -7 -7 -6 -11 3 -119 -60 -133 -77 -7 -8 -18 -15 -24
-15 -9 -1 -79 -44 -176 -110 -8 -5 -37 -24 -65 -42 -27 -18 -52 -35 -55 -38
-3 -3 -32 -23 -65 -45 -33 -22 -61 -43 -63 -47 -2 -5 -9 -8 -16 -8 -6 0 -26
-13 -44 -30 -18 -16 -36 -30 -40 -30 -4 0 -43 -28 -87 -60 -44 -33 -91 -68
-104 -77 -40 -29 -85 -67 -93 -78 -4 -5 -8 -6 -8 -2 0 4 -13 -6 -29 -22 -16
-16 -31 -28 -33 -25 -3 2 -20 -11 -39 -31 -19 -19 -38 -35 -42 -35 -5 0 -14
-6 -22 -12 -7 -7 -30 -27 -51 -45 -113 -93 -253 -213 -292 -250 -25 -24 -47
-43 -49 -43 -10 0 -32 -28 -26 -34 4 -3 0 -6 -8 -6 -8 0 -45 -30 -84 -67 -161
-152 -205 -195 -205 -203 0 -4 -9 -10 -21 -13 -12 -3 -18 -10 -14 -16 3 -6 2
-11 -4 -11 -16 0 -271 -266 -446 -464 -33 -38 -70 -79 -83 -92 -12 -13 -22
-25 -22 -28 0 -3 -12 -18 -28 -34 -35 -37 -162 -191 -162 -197 0 -2 -13 -18
-30 -35 -17 -17 -30 -34 -30 -38 0 -4 -16 -25 -35 -47 -53 -61 -55 -63 -55
-75 0 -5 -4 -10 -8 -10 -4 0 -30 -32 -57 -71 -28 -39 -57 -78 -66 -88 -9 -9
-42 -54 -74 -101 -92 -135 -100 -145 -107 -148 -5 -2 -8 -10 -8 -17 0 -7 -3
-15 -8 -17 -9 -4 -188 -275 -262 -398 -61 -100 -90 -152 -90 -160 0 -6 -4 -10
-9 -10 -5 0 -11 -8 -14 -17 -6 -18 -48 -94 -57 -103 -3 -3 -14 -23 -25 -45
-11 -22 -23 -42 -28 -43 -4 -2 -5 -8 -1 -13 3 -5 0 -9 -5 -9 -6 0 -11 -7 -11
-15 0 -8 -5 -15 -11 -15 -5 0 -8 -4 -4 -9 3 -5 -1 -15 -8 -23 -19 -19 -237
-454 -237 -473 0 -8 -4 -15 -9 -15 -8 0 -41 -77 -40 -94 0 -5 -4 -12 -9 -15
-11 -7 -85 -176 -82 -187 1 -4 -2 -10 -7 -13 -12 -8 -125 -281 -126 -303 -1
-10 -5 -18 -9 -18 -4 0 -7 -3 -6 -7 1 -5 -3 -17 -9 -28 -6 -11 -12 -24 -13
-30 -1 -5 -7 -21 -12 -35 -40 -104 -47 -124 -43 -131 3 -4 1 -9 -5 -11 -5 -1
-11 -12 -13 -23 -2 -11 -9 -30 -15 -42 -7 -13 -10 -23 -6 -23 3 0 1 -7 -6 -15
-7 -8 -9 -15 -5 -15 4 0 2 -7 -5 -15 -7 -9 -10 -18 -7 -22 4 -3 3 -11 -3 -18
-7 -9 -106 -308 -115 -349 -1 -6 -5 -18 -8 -26 -6 -14 -28 -92 -32 -115 -2 -5
-12 -41 -23 -80 -20 -67 -35 -129 -38 -150 0 -5 -4 -17 -8 -26 -4 -9 -8 -27
-10 -40 -2 -13 -6 -31 -9 -39 -13 -38 -35 -145 -31 -152 3 -4 0 -8 -7 -8 -7 0
-10 -3 -6 -6 3 -3 2 -17 -3 -30 -5 -12 -11 -41 -14 -64 -3 -22 -7 -44 -10 -49
-3 -5 -8 -26 -11 -46 -2 -21 -7 -45 -9 -54 -3 -9 -8 -29 -10 -46 -3 -16 -10
-55 -16 -85 -6 -30 -13 -71 -16 -90 -2 -19 -9 -62 -15 -95 -7 -33 -13 -70 -14
-82 -2 -13 -6 -42 -10 -65 -4 -24 -9 -54 -10 -68 -6 -46 -16 -125 -21 -153 -2
-15 -6 -46 -9 -70 -12 -106 -14 -125 -20 -172 -3 -27 -7 -75 -10 -105 -2 -30
-7 -86 -10 -125 -19 -218 -27 -457 -28 -790 -1 -358 12 -651 39 -925 2 -25 7
-72 9 -105 3 -33 7 -71 10 -85 2 -14 7 -53 10 -88 4 -35 8 -73 11 -85 4 -22
11 -70 19 -139 3 -24 8 -54 10 -68 3 -14 7 -41 10 -60 2 -19 7 -46 9 -60 3
-14 7 -41 10 -60 3 -19 15 -84 26 -145 12 -60 25 -130 29 -155 5 -25 16 -77
24 -115 9 -39 18 -82 21 -95 9 -45 14 -65 30 -125 9 -33 19 -71 21 -85 6 -34
10 -49 44 -175 57 -212 62 -229 71 -240 6 -7 7 -14 5 -17 -5 -4 52 -192 72
-238 3 -8 7 -19 7 -25 1 -5 10 -35 21 -65 10 -30 20 -58 21 -62 1 -5 3 -10 4
-13 1 -3 3 -8 4 -12 6 -29 40 -120 49 -130 5 -7 6 -13 3 -13 -4 0 -1 -10 6
-22 7 -13 13 -25 13 -28 8 -32 21 -68 31 -89 8 -14 14 -34 14 -43 0 -10 4 -18
8 -18 5 0 9 -6 9 -12 1 -14 93 -244 137 -343 15 -33 34 -75 42 -92 36 -83 51
-116 106 -233 33 -68 64 -128 71 -132 7 -4 8 -8 4 -8 -5 0 31 -75 79 -167 137
-263 152 -292 164 -303 3 -3 21 -34 39 -70 19 -36 39 -72 46 -80 7 -8 23 -35
36 -60 13 -25 27 -49 32 -55 15 -19 87 -136 87 -140 0 -5 276 -419 294 -443 6
-7 19 -22 28 -33 10 -10 18 -22 17 -25 -1 -9 215 -294 223 -294 4 0 8 -6 8
-12 0 -7 13 -27 28 -44 15 -17 41 -49 57 -70 17 -21 44 -54 60 -74 17 -19 33
-39 38 -45 4 -5 16 -21 27 -34 11 -13 20 -28 20 -33 0 -4 7 -8 15 -8 8 0 15
-5 15 -11 0 -29 571 -645 584 -631 3 3 6 0 6 -7 0 -6 25 -36 55 -65 30 -29 55
-52 55 -50 0 1 24 -22 54 -52 30 -30 59 -54 65 -54 6 0 11 -6 11 -14 0 -8 4
-16 9 -18 6 -1 47 -37 93 -79 114 -105 144 -129 152 -124 3 3 4 2 1 -1 -4 -7
67 -75 81 -77 5 -1 23 -18 42 -37 19 -19 30 -29 26 -21 -5 9 -3 12 4 7 7 -4
12 -14 12 -23 0 -9 3 -14 6 -10 3 3 14 -2 24 -11 9 -10 37 -33 60 -52 24 -19
55 -45 68 -57 14 -13 28 -23 32 -23 3 0 24 -16 46 -35 21 -19 42 -35 46 -35 5
0 16 -8 26 -18 31 -29 72 -62 77 -62 3 0 15 -9 27 -20 12 -11 28 -20 35 -20 7
0 13 -4 13 -8 0 -5 44 -40 97 -78 54 -37 100 -71 103 -74 8 -9 89 -60 95 -60
3 0 14 -8 25 -18 11 -10 33 -25 48 -33 15 -8 32 -19 37 -25 6 -6 26 -20 45
-30 19 -11 37 -22 40 -25 7 -9 330 -209 337 -209 3 0 17 -8 31 -19 15 -10 50
-31 77 -46 239 -133 322 -177 400 -216 50 -24 92 -47 93 -51 2 -5 8 -8 14 -8
5 0 69 -29 141 -64 190 -92 270 -129 285 -129 6 0 12 -4 12 -9 0 -4 5 -8 11
-8 6 0 26 -7 45 -15 83 -37 101 -44 129 -56 17 -7 35 -13 40 -15 6 -1 62 -24
125 -50 119 -48 242 -95 320 -120 25 -8 53 -19 63 -25 10 -5 22 -7 27 -4 6 4
10 1 10 -4 0 -6 3 -10 8 -9 4 0 14 -1 22 -5 39 -15 277 -91 290 -92 8 -1 24
-6 35 -10 54 -19 74 -26 128 -40 31 -8 83 -22 115 -31 65 -18 71 -19 132 -35
25 -6 52 -13 60 -16 8 -4 20 -7 25 -7 6 -1 24 -5 40 -9 29 -7 53 -12 98 -22
12 -2 40 -9 62 -14 89 -22 101 -24 115 -26 8 0 24 -4 35 -8 11 -3 36 -9 55
-12 19 -3 55 -10 80 -15 25 -5 56 -12 70 -14 14 -3 34 -7 45 -9 11 -3 40 -8
65 -11 25 -3 55 -8 66 -10 12 -2 37 -7 55 -10 19 -3 45 -8 59 -10 14 -3 61
-10 105 -16 44 -6 91 -13 105 -16 14 -2 50 -6 80 -10 30 -3 66 -7 80 -9 14 -2
52 -6 85 -10 33 -3 80 -8 105 -11 25 -3 65 -7 90 -9 25 -2 74 -6 110 -9 387
-35 1129 -40 1460 -11 25 2 86 7 135 10 50 4 104 8 120 10 17 2 62 6 100 10
39 4 85 9 103 11 17 2 49 6 70 9 20 2 57 7 82 10 25 4 61 8 81 10 20 2 79 11
131 19 52 9 119 18 149 22 30 3 58 8 62 11 4 2 20 6 35 8 30 4 272 50 312 59
14 4 39 9 55 12 47 8 282 63 365 86 41 11 82 21 90 23 8 2 35 9 60 16 25 7 50
13 55 15 40 8 132 38 141 45 6 5 13 6 16 3 3 -3 22 2 42 10 20 8 39 15 41 16
3 0 6 0 8 1 1 0 10 2 19 4 31 6 401 129 458 152 8 4 17 7 20 8 3 1 14 5 25 10
102 40 154 59 175 65 26 9 250 101 335 139 28 12 64 28 80 36 136 59 160 70
163 77 2 4 10 8 17 8 7 0 72 29 144 65 73 36 136 65 141 65 4 0 10 4 12 8 2 4
39 26 82 48 147 73 171 86 177 96 3 5 9 9 13 9 17 -2 24 1 44 19 12 11 24 20
27 20 10 -1 70 33 77 44 4 6 8 7 8 3 0 -5 13 1 29 12 16 12 31 21 34 21 3 0
72 41 153 91 82 51 165 101 184 113 19 11 44 28 54 38 11 10 23 18 28 18 12 0
171 110 186 129 7 9 15 14 18 12 6 -4 37 15 60 36 7 7 15 13 19 13 7 0 71 47
93 67 7 7 17 13 21 13 4 0 16 8 27 18 10 9 44 35 74 57 30 22 60 44 66 50 6 5
22 17 34 25 12 8 36 27 54 42 17 15 39 30 49 34 9 3 15 10 12 15 -4 5 0 9 7 9
7 0 35 20 61 43 26 24 48 42 50 41 2 -2 27 18 55 44 29 27 54 47 55 45 2 -1
31 23 65 55 34 32 64 57 66 55 2 -2 15 10 29 27 14 16 30 30 35 30 4 0 18 10
29 23 11 12 56 54 99 92 43 39 117 107 164 153 46 45 87 82 91 82 3 0 12 11
19 25 7 13 16 23 20 22 8 -2 70 64 70 75 0 5 3 7 8 6 7 -3 62 48 62 57 0 2 25
27 55 56 30 28 55 58 55 65 0 8 6 13 13 11 6 -1 11 4 9 11 -1 8 2 11 7 8 5 -4
13 0 18 8 4 7 44 53 88 101 44 48 79 92 77 97 -1 5 2 7 8 3 5 -3 13 1 17 11 3
9 18 29 33 43 14 14 50 55 80 91 30 35 67 78 82 95 16 16 28 33 28 37 0 4 10
18 23 31 26 27 51 58 89 109 15 20 33 42 40 50 7 7 26 31 43 53 16 22 35 46
42 53 7 8 11 18 8 23 -4 5 1 9 10 9 9 0 14 4 11 8 -3 5 4 15 15 22 10 8 19 18
19 22 0 4 7 16 15 25 8 10 16 23 17 28 1 6 13 20 27 32 13 13 21 23 17 23 -3
0 6 13 20 29 14 16 25 32 24 36 -1 4 9 15 21 26 12 10 19 19 15 19 -4 0 3 10
14 22 12 13 30 39 40 58 11 19 28 46 39 60 12 14 51 73 88 131 91 142 89 138
120 191 16 27 31 48 36 48 4 0 7 4 7 10 0 5 25 50 55 100 30 50 55 94 55 99 0
5 7 14 15 21 8 7 12 16 9 21 -3 5 -1 9 3 9 5 0 24 30 43 68 19 37 38 68 43 70
4 2 7 10 7 18 0 8 5 14 12 14 6 0 8 3 5 7 -4 3 -3 11 2 17 5 6 37 65 71 131
35 66 67 126 73 133 5 6 6 12 2 12 -4 0 -2 7 5 15 7 8 9 15 4 15 -5 0 -4 4 2
8 12 7 154 295 158 318 1 7 7 18 13 25 6 8 12 17 13 21 1 10 28 75 47 118 24
53 124 294 126 305 2 6 6 16 11 23 4 7 6 16 2 19 -3 3 2 12 10 20 8 9 13 22
10 29 -3 8 -1 14 5 14 6 0 7 5 4 10 -3 6 -1 10 4 10 6 0 11 6 11 14 0 8 5 27
12 43 6 15 12 31 13 36 2 4 4 9 5 12 1 3 3 8 5 13 1 4 5 16 9 27 81 211 230
698 218 709 -3 3 -1 6 5 6 5 0 10 6 11 13 0 6 3 22 6 34 8 32 17 66 19 78 2 6
6 16 11 23 4 7 5 16 2 19 -3 3 -1 12 5 20 6 7 9 13 6 13 -3 0 -1 15 5 33 5 17
11 41 13 52 2 11 6 29 9 40 15 56 57 243 61 269 2 17 14 75 25 129 11 54 22
114 24 133 3 18 7 37 10 42 3 5 8 31 11 58 3 27 7 60 10 74 3 14 7 36 9 50 2
14 7 41 10 60 7 41 15 96 22 165 2 28 7 57 9 65 2 8 7 40 10 70 3 30 7 71 10
90 3 19 7 63 10 96 3 34 7 81 10 105 3 24 8 80 11 124 3 44 7 98 8 120 12 149
20 422 20 668 0 158 3 287 6 288 3 0 14 2 25 4 11 2 47 7 80 11 33 3 71 8 85
10 14 1 50 5 80 8 30 4 73 8 95 11 22 3 60 7 85 10 25 3 61 7 80 10 19 2 60 7
90 10 57 6 100 11 171 20 22 3 64 7 92 10 29 2 68 7 87 9 35 6 80 11 180 21
30 3 73 8 95 11 22 3 54 7 70 9 124 12 173 18 190 21 11 2 45 7 75 9 30 3 73
8 95 11 22 3 56 7 75 9 19 2 58 6 85 9 28 4 71 8 95 11 25 2 61 7 80 9 19 3
60 8 90 11 30 3 71 8 90 10 19 3 60 7 90 10 30 3 89 10 130 15 41 5 102 12
135 16 33 3 69 10 80 14 67 26 92 134 70 305 -4 28 -8 64 -10 80 -5 43 -39
117 -68 148 -13 15 -44 34 -68 42 -47 17 -65 16 -251 -9 -18 -3 -56 -8 -84
-11 -28 -3 -61 -8 -75 -10 -13 -3 -53 -7 -89 -10 -36 -3 -72 -8 -80 -10 -8 -2
-42 -7 -75 -11 -33 -3 -69 -8 -80 -11 -18 -3 -37 -6 -140 -17 -87 -10 -152
-19 -170 -22 -11 -3 -40 -7 -65 -10 -25 -2 -61 -7 -80 -10 -42 -6 -64 -8 -200
-24 -102 -12 -135 -17 -135 -20 0 -1 -18 -3 -40 -4 -37 -3 -179 -21 -250 -32
-16 -2 -48 -6 -70 -8 -54 -6 -135 -16 -165 -22 -14 -3 -43 -6 -65 -9 -22 -2
-60 -7 -85 -10 -25 -3 -58 -8 -75 -10 -78 -8 -152 -18 -170 -21 -11 -2 -44 -6
-74 -9 -30 -3 -58 -8 -63 -11 -4 -3 -8 1 -9 8 -1 7 -2 29 -4 48 -1 19 -5 55
-8 80 -3 25 -9 72 -12 105 -6 74 -14 135 -34 270 -5 39 -13 93 -17 120 -3 28
-8 59 -10 70 -3 11 -7 38 -10 60 -3 22 -7 49 -9 60 -2 11 -7 34 -10 50 -3 17
-8 41 -11 55 -4 14 -8 39 -10 55 -3 28 -6 46 -19 105 -3 14 -7 34 -10 45 -2
11 -13 63 -25 115 -11 52 -23 106 -25 120 -3 14 -15 62 -26 106 -11 45 -22 90
-24 100 -2 11 -9 37 -15 59 -12 45 -15 57 -25 100 -4 17 -10 34 -13 40 -4 5
-7 16 -8 25 -3 17 -6 27 -23 90 -8 25 -14 50 -15 55 -1 6 -8 20 -14 33 -7 12
-11 22 -8 22 3 0 -1 21 -9 47 -10 32 -11 49 -4 54 6 3 79 23 162 44 84 21 154
41 157 44 3 3 14 7 25 8 28 2 77 12 95 20 16 7 22 8 60 17 14 3 68 17 120 31
52 14 107 27 122 30 15 3 37 9 50 14 13 5 26 9 31 10 4 0 8 1 10 2 1 0 13 2
26 5 14 2 30 9 36 14 7 5 14 7 18 4 3 -3 23 0 44 7 21 7 41 12 45 11 4 -1 20
3 35 10 15 6 31 11 35 10 4 -1 25 5 47 13 23 8 41 12 41 9 0 -2 15 2 34 10 19
8 37 12 40 9 3 -3 12 0 21 7 8 7 15 10 15 7 0 -3 24 1 53 9 28 8 59 16 67 18
72 17 175 45 200 54 8 3 20 6 25 7 65 11 95 19 95 27 0 5 4 7 9 4 5 -3 29 0
54 8 25 8 48 11 51 8 4 -3 6 0 6 7 0 7 4 10 8 7 4 -3 57 9 118 25 60 17 118
32 129 34 11 3 65 16 120 31 55 14 136 35 180 46 44 11 86 25 93 31 38 30 55
116 40 196 -5 25 -11 59 -14 75 -3 16 -7 33 -10 38 -3 4 -7 17 -10 28 -2 11
-6 29 -8 40 -14 61 -75 143 -126 167 -38 19 -91 21 -133 7 -20 -7 -41 -13 -45
-13 -7 0 -82 -18 -112 -28 -8 -2 -16 -4 -17 -4 -2 0 -21 -6 -43 -14 -22 -8
-42 -14 -45 -15 -3 0 -6 0 -7 -1 -5 -1 -32 -8 -53 -12 -11 -3 -40 -11 -65 -18
-25 -7 -48 -13 -52 -15 -5 -1 -9 -2 -10 -4 -2 -1 -10 -3 -19 -5 -18 -3 -196
-51 -354 -95 -55 -15 -113 -31 -130 -36 -42 -11 -45 -11 -47 -14 -2 -1 -10 -3
-18 -5 -9 -1 -66 -17 -128 -34 -61 -18 -120 -34 -129 -36 -31 -7 -467 -126
-483 -132 -8 -3 -22 -7 -30 -8 -20 -4 -33 -8 -185 -50 -71 -20 -170 -47 -220
-60 -49 -14 -120 -33 -157 -43 l-67 -19 -17 41 c-10 23 -18 46 -19 51 -1 6
-10 28 -20 50 -10 22 -20 46 -21 53 -1 7 -12 33 -23 58 -12 24 -21 48 -21 54
0 5 -5 10 -11 10 -5 0 -8 4 -4 10 3 5 1 17 -4 27 -6 10 -19 39 -31 66 -41 95
-62 143 -93 212 -39 85 -284 573 -319 635 -14 25 -38 69 -54 98 -16 29 -36 61
-46 71 -9 11 -15 21 -12 23 2 3 -6 21 -20 40 -13 19 -40 65 -60 101 -21 37
-41 67 -45 67 -4 0 -8 6 -8 13 0 7 -9 27 -20 43 -29 41 -137 207 -143 219 -3
6 -20 31 -37 57 -18 26 -33 51 -33 56 0 6 -4 12 -8 14 -5 2 -23 24 -40 50 -18
25 -39 54 -48 62 -8 9 -12 16 -9 16 8 0 -56 83 -67 88 -5 2 -6 8 -2 13 3 5 -2
12 -10 15 -9 3 -16 10 -16 16 0 5 -6 15 -12 22 -7 8 -20 24 -28 36 -30 45
-125 165 -132 168 -5 2 -8 10 -8 18 0 8 -4 14 -8 14 -4 0 -19 18 -32 39 -14
21 -28 37 -32 34 -5 -2 -8 1 -8 6 0 11 -27 47 -70 91 -14 15 -26 30 -28 33 -1
4 -5 14 -8 22 -4 8 -12 15 -20 15 -8 0 -14 6 -14 14 0 8 -14 26 -31 40 -17 14
-27 26 -23 26 4 0 -1 8 -12 19 -10 10 -27 30 -38 45 -10 14 -23 23 -28 20 -4
-3 -7 -2 -6 3 4 13 -26 53 -39 53 -7 0 -12 4 -11 8 2 5 -31 46 -72 92 -97 107
-100 110 -111 110 -5 0 -8 4 -7 8 2 5 -29 41 -68 80 -39 40 -70 72 -68 72 5 0
-74 77 -100 98 -16 12 -26 22 -22 22 3 0 -19 24 -50 53 -30 28 -81 78 -112
109 -31 31 -59 55 -64 52 -4 -3 -8 -1 -8 5 0 6 -16 25 -37 43 -20 18 -46 42
-57 53 -12 11 -57 52 -101 90 -44 39 -94 83 -111 98 -18 16 -35 29 -38 28 -3
0 -20 14 -39 32 -55 52 -85 78 -93 80 -4 1 -28 21 -53 45 -25 23 -49 42 -52
42 -4 0 -21 12 -38 28 -16 15 -52 43 -78 62 -26 19 -57 43 -67 52 -11 10 -38
30 -60 45 -23 15 -45 34 -49 40 -4 7 -14 13 -21 13 -7 0 -21 9 -31 20 -10 11
-22 20 -27 20 -5 0 -19 9 -31 21 -46 43 -529 363 -604 400 -24 12 -43 25 -43
30 0 5 -5 9 -10 9 -6 0 -36 16 -67 36 -31 19 -65 40 -77 45 -12 5 -39 20 -61
34 -43 26 -73 43 -175 96 -36 19 -67 37 -70 40 -3 4 -114 60 -246 125 -231
114 -270 132 -394 187 -30 14 -84 37 -120 53 -36 16 -67 29 -70 30 -3 0 -16 5
-30 11 -14 6 -65 27 -115 47 -49 20 -98 41 -107 46 -10 6 -27 10 -37 10 -11 0
-22 4 -25 9 -6 8 -104 42 -120 40 -5 0 -12 3 -15 8 -3 5 -37 20 -76 33 -65 21
-78 25 -97 29 -4 1 -28 10 -53 21 -25 11 -46 19 -48 19 -1 0 -9 2 -17 5 -8 2
-69 21 -135 41 -66 20 -131 41 -145 46 -14 5 -34 10 -45 12 -11 2 -27 7 -35
10 -8 3 -24 7 -35 10 -11 3 -56 15 -100 27 -68 18 -112 30 -245 65 -8 2 -46
11 -85 19 -38 9 -110 25 -160 36 -49 11 -106 23 -125 26 -19 3 -44 8 -55 11
-11 4 -29 8 -40 8 -11 1 -45 7 -75 14 -30 6 -68 13 -85 16 -16 2 -40 6 -51 9
-35 7 -97 17 -132 21 -18 2 -45 6 -60 9 -15 3 -47 8 -72 12 -25 3 -58 8 -75
10 -16 2 -48 7 -70 9 -42 5 -90 11 -165 20 -25 3 -68 8 -96 10 -28 2 -68 6
-90 9 -21 3 -77 8 -124 11 -47 3 -110 8 -140 10 -232 16 -1013 29 -1025 17z"/>
</g>
</svg>
